<svg width="279" height="314" viewBox="0 0 279 314" fill="none" xmlns="http://www.w3.org/2000/svg">
<path d="M0.345541 156.84L0 157.39C0 157.39 87.0188 157.661 110.623 185.391C133.437 212.195 138.628 286.269 139.574 314C140.52 286.269 145.613 212.195 168.427 185.391C192.031 157.661 279 157.39 279 157.39L278.605 156.84L279 156.446C279 156.446 192.031 156.339 168.427 128.609C145.621 101.805 140.52 27.7307 139.582 0C138.636 27.7307 133.445 101.805 110.631 128.609C87.0271 156.339 0.00822736 156.446 0.00822736 156.446L0.353768 156.84H0.345541Z" fill="#020202"/>
</svg>
