<svg width="148" height="56" viewBox="0 0 148 56" fill="none" xmlns="http://www.w3.org/2000/svg">
<path d="M74 1C94.3454 1 112.72 4.12253 125.972 9.13672C132.601 11.6452 137.897 14.6077 141.518 17.8467C145.139 21.0862 147 24.5191 147 28C147 31.4809 145.139 34.9138 141.518 38.1533C137.897 41.3923 132.601 44.3548 125.972 46.8633C112.72 51.8775 94.3454 55 74 55C53.6546 55 35.2802 51.8775 22.0283 46.8633C15.3989 44.3548 10.1031 41.3923 6.48242 38.1533C2.86113 34.9138 1 31.4809 1 28C1 24.5191 2.86113 21.0862 6.48242 17.8467C10.1031 14.6077 15.3989 11.6452 22.0283 9.13672C35.2802 4.12253 53.6546 1 74 1Z" stroke="#020202" stroke-width="2"/>
</svg>
